<?xml version="1.0" encoding="utf-8" standalone="no"?>
<!DOCTYPE svg PUBLIC "-//W3C//DTD SVG 1.1//EN"
  "http://www.w3.org/Graphics/SVG/1.1/DTD/svg11.dtd">
<!-- Created with matplotlib (http://matplotlib.org/) -->
<svg height="151pt" version="1.1" viewBox="0 0 943 151" width="943pt" xmlns="http://www.w3.org/2000/svg" xmlns:xlink="http://www.w3.org/1999/xlink">
 <defs>
  <style type="text/css">
*{stroke-linecap:butt;stroke-linejoin:round;}
  </style>
 </defs>
 <g id="figure_1">
  <g id="patch_1">
   <path d="M 0 151.2 
L 943.2 151.2 
L 943.2 0 
L 0 0 
z
" style="fill:#ffffff;"/>
  </g>
  <g id="axes_1">
   <g id="patch_2">
    <path d="M 117.9 134.568 
L 848.88 134.568 
L 848.88 18.144 
L 117.9 18.144 
z
" style="fill:#ffffff;"/>
   </g>
   <g id="matplotlib.axis_1">
    <g id="xtick_1">
     <g id="line2d_1">
      <defs>
       <path d="M 0 0 
L 0 6 
" id="m7917a4bd8e" style="stroke:#262626;stroke-width:0.8;"/>
      </defs>
      <g>
       <use style="fill:#262626;stroke:#262626;stroke-width:0.8;" x="117.9" xlink:href="#m7917a4bd8e" y="164.568"/>
      </g>
     </g>
     <g id="text_1">
      <!-- 1 -->
      <defs>
       <path d="M 7.625 0 
L 7.625 7.46875 
L 25.140625 7.46875 
L 25.140625 60.40625 
L 9.625 49.3125 
L 9.625 57.625 
L 25.875 68.796875 
L 33.984375 68.796875 
L 33.984375 7.46875 
L 50.734375 7.46875 
L 50.734375 0 
z
" id="LiberationSans-31"/>
      </defs>
      <g style="fill:#262626;" transform="translate(120.485937 179.628938)rotate(-90)scale(0.1 -0.1)">
       <use xlink:href="#LiberationSans-31"/>
      </g>
     </g>
    </g>
    <g id="xtick_2">
     <g id="line2d_2">
      <g>
       <use style="fill:#262626;stroke:#262626;stroke-width:0.8;" x="184.352727" xlink:href="#m7917a4bd8e" y="164.568"/>
      </g>
     </g>
     <g id="text_2">
      <!-- 2 -->
      <defs>
       <path d="M 5.03125 0 
L 5.03125 6.203125 
Q 7.515625 11.921875 11.109375 16.28125 
Q 14.703125 20.65625 18.65625 24.1875 
Q 22.609375 27.734375 26.484375 30.765625 
Q 30.375 33.796875 33.5 36.8125 
Q 36.625 39.84375 38.546875 43.15625 
Q 40.484375 46.484375 40.484375 50.6875 
Q 40.484375 53.609375 39.59375 55.828125 
Q 38.71875 58.0625 37.0625 59.5625 
Q 35.40625 61.078125 33.078125 61.828125 
Q 30.765625 62.59375 27.9375 62.59375 
Q 25.296875 62.59375 22.96875 61.859375 
Q 20.65625 61.140625 18.84375 59.671875 
Q 17.046875 58.203125 15.890625 56.03125 
Q 14.75 53.859375 14.40625 50.984375 
L 5.421875 51.8125 
Q 5.859375 55.515625 7.46875 58.78125 
Q 9.078125 62.0625 11.90625 64.53125 
Q 14.75 67 18.71875 68.40625 
Q 22.703125 69.828125 27.9375 69.828125 
Q 33.0625 69.828125 37.0625 68.609375 
Q 41.0625 67.390625 43.8125 64.984375 
Q 46.578125 62.59375 48.046875 59.078125 
Q 49.515625 55.5625 49.515625 50.984375 
Q 49.515625 47.515625 48.265625 44.390625 
Q 47.015625 41.265625 44.9375 38.421875 
Q 42.875 35.59375 40.140625 32.953125 
Q 37.40625 30.328125 34.421875 27.8125 
Q 31.453125 25.296875 28.421875 22.828125 
Q 25.390625 20.359375 22.71875 17.859375 
Q 20.0625 15.375 17.96875 12.8125 
Q 15.875 10.25 14.703125 7.46875 
L 50.59375 7.46875 
L 50.59375 0 
z
" id="LiberationSans-32"/>
      </defs>
      <g style="fill:#262626;" transform="translate(186.938665 179.628938)rotate(-90)scale(0.1 -0.1)">
       <use xlink:href="#LiberationSans-32"/>
      </g>
     </g>
    </g>
    <g id="xtick_3">
     <g id="line2d_3">
      <g>
       <use style="fill:#262626;stroke:#262626;stroke-width:0.8;" x="250.805455" xlink:href="#m7917a4bd8e" y="164.568"/>
      </g>
     </g>
     <g id="text_3">
      <!-- 3 -->
      <defs>
       <path d="M 51.21875 19 
Q 51.21875 14.265625 49.671875 10.546875 
Q 48.140625 6.84375 45.1875 4.265625 
Q 42.234375 1.703125 37.859375 0.359375 
Q 33.5 -0.984375 27.875 -0.984375 
Q 21.484375 -0.984375 17.109375 0.609375 
Q 12.75 2.203125 9.90625 4.8125 
Q 7.078125 7.421875 5.65625 10.765625 
Q 4.25 14.109375 3.8125 17.671875 
L 12.890625 18.5 
Q 13.28125 15.765625 14.328125 13.515625 
Q 15.375 11.28125 17.1875 9.671875 
Q 19 8.0625 21.625 7.171875 
Q 24.265625 6.296875 27.875 6.296875 
Q 34.515625 6.296875 38.296875 9.5625 
Q 42.09375 12.84375 42.09375 19.28125 
Q 42.09375 23.09375 40.40625 25.40625 
Q 38.71875 27.734375 36.203125 29.03125 
Q 33.6875 30.328125 30.734375 30.765625 
Q 27.78125 31.203125 25.296875 31.203125 
L 20.3125 31.203125 
L 20.3125 38.8125 
L 25.09375 38.8125 
Q 27.59375 38.8125 30.265625 39.328125 
Q 32.953125 39.84375 35.171875 41.1875 
Q 37.40625 42.53125 38.84375 44.828125 
Q 40.28125 47.125 40.28125 50.6875 
Q 40.28125 56.203125 37.03125 59.390625 
Q 33.796875 62.59375 27.390625 62.59375 
Q 21.578125 62.59375 17.984375 59.609375 
Q 14.40625 56.640625 13.8125 51.21875 
L 4.984375 51.90625 
Q 5.515625 56.453125 7.46875 59.8125 
Q 9.421875 63.1875 12.421875 65.40625 
Q 15.4375 67.625 19.28125 68.71875 
Q 23.140625 69.828125 27.484375 69.828125 
Q 33.25 69.828125 37.390625 68.375 
Q 41.546875 66.9375 44.1875 64.46875 
Q 46.828125 62.015625 48.0625 58.6875 
Q 49.3125 55.375 49.3125 51.609375 
Q 49.3125 48.578125 48.484375 45.9375 
Q 47.65625 43.3125 45.890625 41.203125 
Q 44.140625 39.109375 41.421875 37.59375 
Q 38.71875 36.078125 34.90625 35.296875 
L 34.90625 35.109375 
Q 39.0625 34.671875 42.140625 33.21875 
Q 45.21875 31.78125 47.21875 29.625 
Q 49.21875 27.484375 50.21875 24.75 
Q 51.21875 22.015625 51.21875 19 
z
" id="LiberationSans-33"/>
      </defs>
      <g style="fill:#262626;" transform="translate(253.391392 179.628938)rotate(-90)scale(0.1 -0.1)">
       <use xlink:href="#LiberationSans-33"/>
      </g>
     </g>
    </g>
    <g id="xtick_4">
     <g id="line2d_4">
      <g>
       <use style="fill:#262626;stroke:#262626;stroke-width:0.8;" x="317.258182" xlink:href="#m7917a4bd8e" y="164.568"/>
      </g>
     </g>
     <g id="text_4">
      <!-- 4 -->
      <defs>
       <path d="M 43.015625 15.578125 
L 43.015625 0 
L 34.71875 0 
L 34.71875 15.578125 
L 2.296875 15.578125 
L 2.296875 22.40625 
L 33.796875 68.796875 
L 43.015625 68.796875 
L 43.015625 22.515625 
L 52.6875 22.515625 
L 52.6875 15.578125 
z
M 34.71875 58.890625 
Q 34.625 58.640625 34.234375 57.9375 
Q 33.84375 57.234375 33.34375 56.34375 
Q 32.859375 55.46875 32.34375 54.5625 
Q 31.84375 53.65625 31.453125 53.078125 
L 13.8125 27.09375 
Q 13.578125 26.703125 13.109375 26.0625 
Q 12.640625 25.4375 12.15625 24.78125 
Q 11.671875 24.125 11.171875 23.484375 
Q 10.6875 22.859375 10.40625 22.515625 
L 34.71875 22.515625 
z
" id="LiberationSans-34"/>
      </defs>
      <g style="fill:#262626;" transform="translate(319.844119 179.628938)rotate(-90)scale(0.1 -0.1)">
       <use xlink:href="#LiberationSans-34"/>
      </g>
     </g>
    </g>
    <g id="xtick_5">
     <g id="line2d_5">
      <g>
       <use style="fill:#262626;stroke:#262626;stroke-width:0.8;" x="383.710909" xlink:href="#m7917a4bd8e" y="164.568"/>
      </g>
     </g>
     <g id="text_5">
      <!-- 5 -->
      <defs>
       <path d="M 51.421875 22.40625 
Q 51.421875 17.234375 49.859375 12.9375 
Q 48.296875 8.640625 45.21875 5.53125 
Q 42.140625 2.4375 37.578125 0.71875 
Q 33.015625 -0.984375 27 -0.984375 
Q 21.578125 -0.984375 17.546875 0.28125 
Q 13.53125 1.5625 10.734375 3.78125 
Q 7.953125 6 6.3125 8.984375 
Q 4.6875 11.96875 4 15.375 
L 12.890625 16.40625 
Q 13.421875 14.453125 14.390625 12.625 
Q 15.375 10.796875 17.0625 9.34375 
Q 18.75 7.90625 21.21875 7.046875 
Q 23.6875 6.203125 27.203125 6.203125 
Q 30.609375 6.203125 33.390625 7.25 
Q 36.1875 8.296875 38.15625 10.34375 
Q 40.140625 12.40625 41.203125 15.375 
Q 42.28125 18.359375 42.28125 22.21875 
Q 42.28125 25.390625 41.25 28.046875 
Q 40.234375 30.71875 38.328125 32.640625 
Q 36.421875 34.578125 33.65625 35.640625 
Q 30.90625 36.71875 27.390625 36.71875 
Q 25.203125 36.71875 23.34375 36.328125 
Q 21.484375 35.9375 19.890625 35.25 
Q 18.3125 34.578125 17.015625 33.671875 
Q 15.71875 32.765625 14.59375 31.78125 
L 6 31.78125 
L 8.296875 68.796875 
L 47.40625 68.796875 
L 47.40625 61.328125 
L 16.3125 61.328125 
L 14.984375 39.5 
Q 17.328125 41.3125 20.84375 42.59375 
Q 24.359375 43.890625 29.203125 43.890625 
Q 34.328125 43.890625 38.421875 42.328125 
Q 42.53125 40.765625 45.40625 37.90625 
Q 48.296875 35.0625 49.859375 31.109375 
Q 51.421875 27.15625 51.421875 22.40625 
z
" id="LiberationSans-35"/>
      </defs>
      <g style="fill:#262626;" transform="translate(386.296847 179.628938)rotate(-90)scale(0.1 -0.1)">
       <use xlink:href="#LiberationSans-35"/>
      </g>
     </g>
    </g>
    <g id="xtick_6">
     <g id="line2d_6">
      <g>
       <use style="fill:#262626;stroke:#262626;stroke-width:0.8;" x="450.163636" xlink:href="#m7917a4bd8e" y="164.568"/>
      </g>
     </g>
     <g id="text_6">
      <!-- 6 -->
      <defs>
       <path d="M 51.21875 22.515625 
Q 51.21875 17.328125 49.78125 13 
Q 48.34375 8.6875 45.53125 5.578125 
Q 42.71875 2.484375 38.5625 0.75 
Q 34.421875 -0.984375 29 -0.984375 
Q 23 -0.984375 18.5 1.3125 
Q 14.015625 3.609375 11.03125 7.921875 
Q 8.0625 12.25 6.5625 18.53125 
Q 5.078125 24.8125 5.078125 32.8125 
Q 5.078125 42 6.765625 48.921875 
Q 8.453125 55.859375 11.625 60.5 
Q 14.796875 65.140625 19.359375 67.484375 
Q 23.921875 69.828125 29.6875 69.828125 
Q 33.203125 69.828125 36.28125 69.09375 
Q 39.359375 68.359375 41.875 66.71875 
Q 44.390625 65.09375 46.28125 62.40625 
Q 48.1875 59.71875 49.3125 55.8125 
L 40.921875 54.296875 
Q 39.546875 58.734375 36.546875 60.71875 
Q 33.546875 62.703125 29.59375 62.703125 
Q 25.984375 62.703125 23.046875 60.984375 
Q 20.125 59.28125 18.0625 55.875 
Q 16.015625 52.484375 14.90625 47.359375 
Q 13.8125 42.234375 13.8125 35.40625 
Q 16.21875 39.84375 20.5625 42.15625 
Q 24.90625 44.484375 30.515625 44.484375 
Q 35.203125 44.484375 39.015625 42.96875 
Q 42.828125 41.453125 45.53125 38.59375 
Q 48.25 35.75 49.734375 31.671875 
Q 51.21875 27.59375 51.21875 22.515625 
z
M 42.28125 22.125 
Q 42.28125 25.6875 41.40625 28.5625 
Q 40.53125 31.453125 38.765625 33.46875 
Q 37.015625 35.5 34.421875 36.59375 
Q 31.84375 37.703125 28.421875 37.703125 
Q 26.03125 37.703125 23.578125 36.984375 
Q 21.140625 36.28125 19.15625 34.6875 
Q 17.1875 33.109375 15.9375 30.515625 
Q 14.703125 27.9375 14.703125 24.21875 
Q 14.703125 20.40625 15.671875 17.109375 
Q 16.65625 13.8125 18.484375 11.375 
Q 20.3125 8.9375 22.890625 7.515625 
Q 25.484375 6.109375 28.71875 6.109375 
Q 31.890625 6.109375 34.40625 7.203125 
Q 36.921875 8.296875 38.671875 10.375 
Q 40.4375 12.453125 41.359375 15.421875 
Q 42.28125 18.40625 42.28125 22.125 
z
" id="LiberationSans-36"/>
      </defs>
      <g style="fill:#262626;" transform="translate(452.749574 179.628938)rotate(-90)scale(0.1 -0.1)">
       <use xlink:href="#LiberationSans-36"/>
      </g>
     </g>
    </g>
    <g id="xtick_7">
     <g id="line2d_7">
      <g>
       <use style="fill:#262626;stroke:#262626;stroke-width:0.8;" x="516.616364" xlink:href="#m7917a4bd8e" y="164.568"/>
      </g>
     </g>
     <g id="text_7">
      <!-- 7 -->
      <defs>
       <path d="M 50.59375 61.671875 
Q 45.40625 53.765625 41.0625 46.453125 
Q 36.71875 39.15625 33.59375 31.75 
Q 30.46875 24.359375 28.734375 16.578125 
Q 27 8.796875 27 0 
L 17.828125 0 
Q 17.828125 8.25 19.78125 16.1875 
Q 21.734375 24.125 25.046875 31.765625 
Q 28.375 39.40625 32.765625 46.78125 
Q 37.15625 54.15625 42.09375 61.328125 
L 5.125 61.328125 
L 5.125 68.796875 
L 50.59375 68.796875 
z
" id="LiberationSans-37"/>
      </defs>
      <g style="fill:#262626;" transform="translate(519.202301 179.628938)rotate(-90)scale(0.1 -0.1)">
       <use xlink:href="#LiberationSans-37"/>
      </g>
     </g>
    </g>
    <g id="xtick_8">
     <g id="line2d_8">
      <g>
       <use style="fill:#262626;stroke:#262626;stroke-width:0.8;" x="583.069091" xlink:href="#m7917a4bd8e" y="164.568"/>
      </g>
     </g>
     <g id="text_8">
      <!-- 8 -->
      <defs>
       <path d="M 51.265625 19.1875 
Q 51.265625 14.796875 49.875 11.109375 
Q 48.484375 7.421875 45.625 4.734375 
Q 42.78125 2.046875 38.328125 0.53125 
Q 33.890625 -0.984375 27.828125 -0.984375 
Q 21.78125 -0.984375 17.359375 0.53125 
Q 12.9375 2.046875 10.03125 4.703125 
Q 7.125 7.375 5.734375 11.0625 
Q 4.34375 14.75 4.34375 19.09375 
Q 4.34375 22.859375 5.484375 25.78125 
Q 6.640625 28.71875 8.5625 30.828125 
Q 10.5 32.953125 12.96875 34.25 
Q 15.4375 35.546875 18.0625 35.984375 
L 18.0625 36.1875 
Q 15.1875 36.859375 12.90625 38.375 
Q 10.640625 39.890625 9.09375 42.015625 
Q 7.5625 44.140625 6.75 46.71875 
Q 5.953125 49.3125 5.953125 52.203125 
Q 5.953125 55.8125 7.34375 59 
Q 8.734375 62.203125 11.46875 64.625 
Q 14.203125 67.046875 18.25 68.4375 
Q 22.3125 69.828125 27.640625 69.828125 
Q 33.25 69.828125 37.375 68.40625 
Q 41.5 67 44.203125 64.578125 
Q 46.921875 62.15625 48.234375 58.9375 
Q 49.5625 55.71875 49.5625 52.09375 
Q 49.5625 49.265625 48.75 46.671875 
Q 47.953125 44.09375 46.40625 41.96875 
Q 44.875 39.84375 42.59375 38.34375 
Q 40.328125 36.859375 37.359375 36.28125 
L 37.359375 36.078125 
Q 40.328125 35.59375 42.859375 34.296875 
Q 45.40625 33.015625 47.265625 30.890625 
Q 49.125 28.765625 50.1875 25.828125 
Q 51.265625 22.90625 51.265625 19.1875 
z
M 40.4375 51.609375 
Q 40.4375 54.203125 39.765625 56.34375 
Q 39.109375 58.5 37.59375 60.03125 
Q 36.078125 61.578125 33.640625 62.421875 
Q 31.203125 63.28125 27.640625 63.28125 
Q 24.171875 63.28125 21.78125 62.421875 
Q 19.390625 61.578125 17.84375 60.03125 
Q 16.3125 58.5 15.625 56.34375 
Q 14.9375 54.203125 14.9375 51.609375 
Q 14.9375 49.5625 15.46875 47.40625 
Q 16.015625 45.265625 17.421875 43.5 
Q 18.84375 41.75 21.328125 40.625 
Q 23.828125 39.5 27.734375 39.5 
Q 31.890625 39.5 34.40625 40.625 
Q 36.921875 41.75 38.25 43.5 
Q 39.59375 45.265625 40.015625 47.40625 
Q 40.4375 49.5625 40.4375 51.609375 
z
M 42.140625 20.015625 
Q 42.140625 22.515625 41.453125 24.828125 
Q 40.765625 27.15625 39.109375 28.9375 
Q 37.453125 30.71875 34.640625 31.8125 
Q 31.84375 32.90625 27.640625 32.90625 
Q 23.78125 32.90625 21.0625 31.8125 
Q 18.359375 30.71875 16.671875 28.90625 
Q 14.984375 27.09375 14.203125 24.71875 
Q 13.421875 22.359375 13.421875 19.828125 
Q 13.421875 16.65625 14.203125 14.03125 
Q 14.984375 11.421875 16.6875 9.546875 
Q 18.40625 7.671875 21.1875 6.640625 
Q 23.96875 5.609375 27.9375 5.609375 
Q 31.9375 5.609375 34.671875 6.640625 
Q 37.40625 7.671875 39.0625 9.546875 
Q 40.71875 11.421875 41.421875 14.078125 
Q 42.140625 16.75 42.140625 20.015625 
z
" id="LiberationSans-38"/>
      </defs>
      <g style="fill:#262626;" transform="translate(585.655028 179.628938)rotate(-90)scale(0.1 -0.1)">
       <use xlink:href="#LiberationSans-38"/>
      </g>
     </g>
    </g>
    <g id="xtick_9">
     <g id="line2d_9">
      <g>
       <use style="fill:#262626;stroke:#262626;stroke-width:0.8;" x="649.521818" xlink:href="#m7917a4bd8e" y="164.568"/>
      </g>
     </g>
     <g id="text_9">
      <!-- 9 -->
      <defs>
       <path d="M 50.875 35.796875 
Q 50.875 26.609375 49.140625 19.703125 
Q 47.40625 12.796875 44.1875 8.203125 
Q 40.96875 3.609375 36.34375 1.3125 
Q 31.734375 -0.984375 25.984375 -0.984375 
Q 22.015625 -0.984375 18.84375 -0.171875 
Q 15.671875 0.640625 13.171875 2.34375 
Q 10.6875 4.046875 8.921875 6.78125 
Q 7.171875 9.515625 6.109375 13.375 
L 14.5 14.703125 
Q 15.875 10.25 18.78125 8.171875 
Q 21.6875 6.109375 26.125 6.109375 
Q 29.6875 6.109375 32.640625 7.78125 
Q 35.59375 9.46875 37.671875 12.84375 
Q 39.75 16.21875 40.921875 21.296875 
Q 42.09375 26.375 42.1875 33.203125 
Q 41.15625 30.90625 39.375 29.09375 
Q 37.59375 27.296875 35.328125 26.046875 
Q 33.0625 24.8125 30.421875 24.140625 
Q 27.78125 23.484375 25.09375 23.484375 
Q 20.40625 23.484375 16.625 25.171875 
Q 12.84375 26.859375 10.203125 29.875 
Q 7.5625 32.90625 6.125 37.171875 
Q 4.6875 41.453125 4.6875 46.6875 
Q 4.6875 52 6.21875 56.296875 
Q 7.765625 60.59375 10.6875 63.59375 
Q 13.625 66.609375 17.890625 68.21875 
Q 22.171875 69.828125 27.59375 69.828125 
Q 39.0625 69.828125 44.96875 61.328125 
Q 50.875 52.828125 50.875 35.796875 
z
M 41.3125 44.28125 
Q 41.3125 48.09375 40.40625 51.453125 
Q 39.5 54.828125 37.71875 57.3125 
Q 35.9375 59.8125 33.328125 61.25 
Q 30.71875 62.703125 27.296875 62.703125 
Q 24.125 62.703125 21.578125 61.578125 
Q 19.046875 60.453125 17.28125 58.375 
Q 15.53125 56.296875 14.578125 53.3125 
Q 13.625 50.34375 13.625 46.6875 
Q 13.625 43.21875 14.46875 40.234375 
Q 15.328125 37.25 17.03125 35.078125 
Q 18.75 32.90625 21.28125 31.65625 
Q 23.828125 30.421875 27.203125 30.421875 
Q 29.640625 30.421875 32.15625 31.25 
Q 34.671875 32.078125 36.6875 33.78125 
Q 38.71875 35.5 40.015625 38.109375 
Q 41.3125 40.71875 41.3125 44.28125 
z
" id="LiberationSans-39"/>
      </defs>
      <g style="fill:#262626;" transform="translate(652.107756 179.628938)rotate(-90)scale(0.1 -0.1)">
       <use xlink:href="#LiberationSans-39"/>
      </g>
     </g>
    </g>
    <g id="xtick_10">
     <g id="line2d_10">
      <g>
       <use style="fill:#262626;stroke:#262626;stroke-width:0.8;" x="715.974545" xlink:href="#m7917a4bd8e" y="164.568"/>
      </g>
     </g>
     <g id="text_10">
      <!-- 10 -->
      <defs>
       <path d="M 51.703125 34.421875 
Q 51.703125 24.515625 49.828125 17.75 
Q 47.953125 10.984375 44.703125 6.8125 
Q 41.453125 2.640625 37.0625 0.828125 
Q 32.671875 -0.984375 27.6875 -0.984375 
Q 22.65625 -0.984375 18.3125 0.828125 
Q 13.96875 2.640625 10.765625 6.78125 
Q 7.5625 10.9375 5.734375 17.703125 
Q 3.90625 24.46875 3.90625 34.421875 
Q 3.90625 44.828125 5.734375 51.640625 
Q 7.5625 58.453125 10.78125 62.5 
Q 14.015625 66.546875 18.40625 68.1875 
Q 22.796875 69.828125 27.984375 69.828125 
Q 32.90625 69.828125 37.21875 68.1875 
Q 41.546875 66.546875 44.765625 62.5 
Q 48 58.453125 49.84375 51.640625 
Q 51.703125 44.828125 51.703125 34.421875 
z
M 42.78125 34.421875 
Q 42.78125 42.625 41.796875 48.0625 
Q 40.828125 53.515625 38.921875 56.765625 
Q 37.015625 60.015625 34.25 61.359375 
Q 31.5 62.703125 27.984375 62.703125 
Q 24.265625 62.703125 21.4375 61.328125 
Q 18.609375 59.96875 16.671875 56.71875 
Q 14.75 53.46875 13.765625 48.015625 
Q 12.796875 42.578125 12.796875 34.421875 
Q 12.796875 26.515625 13.796875 21.09375 
Q 14.796875 15.671875 16.71875 12.375 
Q 18.65625 9.078125 21.4375 7.640625 
Q 24.21875 6.203125 27.78125 6.203125 
Q 31.25 6.203125 34.03125 7.640625 
Q 36.8125 9.078125 38.734375 12.375 
Q 40.671875 15.671875 41.71875 21.09375 
Q 42.78125 26.515625 42.78125 34.421875 
z
" id="LiberationSans-30"/>
      </defs>
      <g style="fill:#262626;" transform="translate(718.560483 185.189875)rotate(-90)scale(0.1 -0.1)">
       <use xlink:href="#LiberationSans-31"/>
       <use x="55.615234" xlink:href="#LiberationSans-30"/>
      </g>
     </g>
    </g>
    <g id="xtick_11">
     <g id="line2d_11">
      <g>
       <use style="fill:#262626;stroke:#262626;stroke-width:0.8;" x="782.427273" xlink:href="#m7917a4bd8e" y="164.568"/>
      </g>
     </g>
     <g id="text_11">
      <!-- 11 -->
      <g style="fill:#262626;" transform="translate(785.01321 185.189875)rotate(-90)scale(0.1 -0.1)">
       <use xlink:href="#LiberationSans-31"/>
       <use x="55.615234" xlink:href="#LiberationSans-31"/>
      </g>
     </g>
    </g>
    <g id="xtick_12">
     <g id="line2d_12">
      <g>
       <use style="fill:#262626;stroke:#262626;stroke-width:0.8;" x="848.88" xlink:href="#m7917a4bd8e" y="164.568"/>
      </g>
     </g>
     <g id="text_12">
      <!-- 12 -->
      <g style="fill:#262626;" transform="translate(851.465937 185.189875)rotate(-90)scale(0.1 -0.1)">
       <use xlink:href="#LiberationSans-31"/>
       <use x="55.615234" xlink:href="#LiberationSans-32"/>
      </g>
     </g>
    </g>
   </g>
   <g id="matplotlib.axis_2">
    <g id="ytick_1">
     <g id="line2d_13">
      <defs>
       <path d="M 0 0 
L -6 0 
" id="m1d7442bad7" style="stroke:#262626;stroke-width:0.8;"/>
      </defs>
      <g>
       <use style="fill:#262626;stroke:#262626;stroke-width:0.8;" x="87.9" xlink:href="#m1d7442bad7" y="134.568"/>
      </g>
     </g>
     <g id="text_13">
      <!-- 0 -->
      <g style="fill:#262626;" transform="translate(72.839062 138.191438)scale(0.1 -0.1)">
       <use xlink:href="#LiberationSans-30"/>
      </g>
     </g>
    </g>
    <g id="ytick_2">
     <g id="line2d_14">
      <g>
       <use style="fill:#262626;stroke:#262626;stroke-width:0.8;" x="87.9" xlink:href="#m1d7442bad7" y="76.356"/>
      </g>
     </g>
     <g id="text_14">
      <!-- 1 -->
      <g style="fill:#262626;" transform="translate(72.839062 79.979438)scale(0.1 -0.1)">
       <use xlink:href="#LiberationSans-31"/>
      </g>
     </g>
    </g>
    <g id="ytick_3">
     <g id="line2d_15">
      <g>
       <use style="fill:#262626;stroke:#262626;stroke-width:0.8;" x="87.9" xlink:href="#m1d7442bad7" y="18.144"/>
      </g>
     </g>
     <g id="text_15">
      <!-- 2 -->
      <g style="fill:#262626;" transform="translate(72.839062 21.767437)scale(0.1 -0.1)">
       <use xlink:href="#LiberationSans-32"/>
      </g>
     </g>
    </g>
   </g>
   <g id="patch_3">
    <path d="M 87.9 134.568 
L 87.9 18.144 
" style="fill:none;stroke:#262626;stroke-linecap:square;stroke-linejoin:miter;stroke-width:1.25;"/>
   </g>
   <g id="patch_4">
    <path style="fill:none;stroke:#262626;stroke-linecap:square;stroke-linejoin:miter;stroke-width:1.25;"/>
   </g>
   <g id="text_16">
    <path d="M 133.275 134.568 
L 128.3875 134.568 
L 107.4125 134.568 
L 102.525 134.568 
L 91 134.568 
L 111.0875 134.568 
L 124.675 134.568 
L 144.675 134.568 
z
M 120.375 134.568 
Q 119.9125 134.568 119.4625 134.568 
Q 119.0125 134.568 118.675 134.568 
Q 118.35 134.568 118.1375 134.568 
Q 117.925 134.568 117.875 134.568 
Q 117.8375 134.568 117.6375 134.568 
Q 117.45 134.568 117.1125 134.568 
Q 116.7875 134.568 116.3375 134.568 
Q 115.8875 134.568 115.425 134.568 
L 109.9875 134.568 
L 125.8125 134.568 
z
" style="fill:#ff0000;"/>
   </g>
   <g id="text_17">
    <path d="M 120.0625 133.975028 
Q 123.3125 133.975028 125.675 133.909738 
Q 128.0375 133.844448 129.775 133.738017 
Q 131.5125 133.631586 132.6625 133.49743 
Q 133.8125 133.363273 134.5625 133.226433 
L 144.6 133.49743 
Q 143.3875 133.710292 141.4375 133.91421 
Q 139.4875 134.118128 136.55 134.274644 
Q 133.625 134.43116 129.575 134.527753 
Q 125.5375 134.624346 120.0625 134.624346 
Q 112.925 134.624346 107.6875 134.472302 
Q 102.45 134.319363 99.025 134.046578 
Q 95.6125 133.773793 93.95 133.399943 
Q 92.3 133.025198 92.3 132.580693 
Q 92.3 132.119194 93.95 131.748027 
Q 95.6125 131.375966 98.975 131.114807 
Q 102.3375 130.853649 107.475 130.712337 
Q 112.6125 130.571026 119.5625 130.571026 
Q 124.95 130.571026 128.9875 130.652414 
Q 133.0375 130.732908 135.9875 130.880481 
Q 138.9375 131.027158 140.8625 131.226605 
Q 142.8 131.426051 143.9 131.666639 
L 133.7375 131.86519 
Q 133.1875 131.739083 132.05 131.623708 
Q 130.925 131.507439 129.1875 131.418002 
Q 127.45 131.328564 125.1 131.274007 
Q 122.7625 131.21945 119.8 131.21945 
Q 115.6125 131.21945 112.6 131.316042 
Q 109.6 131.412635 107.6625 131.591511 
Q 105.7375 131.770386 104.8125 132.020812 
Q 103.9 132.270344 103.9 132.580693 
Q 103.9 132.888359 104.8125 133.144151 
Q 105.7375 133.399943 107.6875 133.584184 
Q 109.6375 133.768426 112.7 133.872174 
Q 115.775 133.975028 120.0625 133.975028 
z
" style="fill:#0000ff;"/>
   </g>
   <g id="text_18">
    <path d="M 118.275 129.14181 
Q 120.775 129.14181 123.075 129.114084 
Q 125.3875 129.085464 127.35 129.039851 
Q 129.325 128.993343 130.9 128.93342 
Q 132.4875 128.873497 133.5125 128.809102 
L 133.5125 128.263531 
L 120.075 128.263531 
L 120.075 127.65446 
L 144.05 127.65446 
L 144.05 129.102458 
Q 142.175 129.239297 139.5125 129.363616 
Q 136.8625 129.487934 133.5375 129.581844 
Q 130.225 129.674859 126.3 129.731205 
Q 122.375 129.787551 117.9625 129.787551 
Q 110.65 129.787551 105.375 129.635507 
Q 100.1125 129.482568 96.7125 129.209783 
Q 93.3125 128.936998 91.6875 128.563148 
Q 90.075 128.188403 90.075 127.743898 
Q 90.075 127.282399 91.7875 126.911232 
Q 93.5125 126.539171 97 126.278013 
Q 100.5 126.016854 105.7875 125.875543 
Q 111.0875 125.734231 118.2375 125.734231 
Q 123.425 125.734231 127.4625 125.80757 
Q 131.5125 125.880014 134.5375 126.014171 
Q 137.575 126.148328 139.625 126.337042 
Q 141.675 126.525755 142.8875 126.760082 
L 132.2625 126.989043 
Q 131.55 126.866513 130.375 126.756505 
Q 129.2125 126.645602 127.475 126.563319 
Q 125.7375 126.481036 123.45 126.431846 
Q 121.1625 126.382655 118.2375 126.382655 
Q 113.9375 126.382655 110.8125 126.479248 
Q 107.6875 126.57584 105.65 126.754716 
Q 103.625 126.933591 102.65 127.184017 
Q 101.675 127.433549 101.675 127.743898 
Q 101.675 128.051564 102.6625 128.309144 
Q 103.6625 128.565831 105.7125 128.750073 
Q 107.7625 128.934315 110.8875 129.038062 
Q 114.0125 129.14181 118.275 129.14181 
z
" style="fill:#ffa500;"/>
   </g>
   <g id="text_19">
    <path d="M 123.66875 65.473741 
L 123.66875 124.89441 
L 112.14375 124.89441 
L 112.14375 65.473741 
L 94.36875 65.473741 
L 94.36875 54.011395 
L 141.48125 54.011395 
L 141.48125 65.473741 
z
" style="fill:#006400;"/>
   </g>
   <g id="text_20">
    <path d="M 172.675 134.568 
Q 175.175 134.568 177.475 134.568 
Q 179.7875 134.568 181.75 134.568 
Q 183.725 134.568 185.3 134.568 
Q 186.8875 134.568 187.9125 134.568 
L 187.9125 134.568 
L 174.475 134.568 
L 174.475 134.568 
L 198.45 134.568 
L 198.45 134.568 
Q 196.575 134.568 193.9125 134.568 
Q 191.2625 134.568 187.9375 134.568 
Q 184.625 134.568 180.7 134.568 
Q 176.775 134.568 172.3625 134.568 
Q 165.05 134.568 159.775 134.568 
Q 154.5125 134.568 151.1125 134.568 
Q 147.7125 134.568 146.0875 134.568 
Q 144.475 134.568 144.475 134.568 
Q 144.475 134.568 146.1875 134.568 
Q 147.9125 134.568 151.4 134.568 
Q 154.9 134.568 160.1875 134.568 
Q 165.4875 134.568 172.6375 134.568 
Q 177.825 134.568 181.8625 134.568 
Q 185.9125 134.568 188.9375 134.568 
Q 191.975 134.568 194.025 134.568 
Q 196.075 134.568 197.2875 134.568 
L 186.6625 134.568 
Q 185.95 134.568 184.775 134.568 
Q 183.6125 134.568 181.875 134.568 
Q 180.1375 134.568 177.85 134.568 
Q 175.5625 134.568 172.6375 134.568 
Q 168.3375 134.568 165.2125 134.568 
Q 162.0875 134.568 160.05 134.568 
Q 158.025 134.568 157.05 134.568 
Q 156.075 134.568 156.075 134.568 
Q 156.075 134.568 157.0625 134.568 
Q 158.0625 134.568 160.1125 134.568 
Q 162.1625 134.568 165.2875 134.568 
Q 168.4125 134.568 172.675 134.568 
z
" style="fill:#ffa500;"/>
   </g>
   <g id="text_21">
    <path d="M 178.06875 134.568 
L 178.06875 134.568 
L 166.54375 134.568 
L 166.54375 134.568 
L 148.76875 134.568 
L 148.76875 134.568 
L 195.88125 134.568 
L 195.88125 134.568 
z
" style="fill:#006400;"/>
   </g>
   <g id="text_22">
    <path d="M 174.4625 133.29918 
Q 177.7125 133.29918 180.075 133.159476 
Q 182.4375 133.019772 184.175 132.792035 
Q 185.9125 132.564298 187.0625 132.277235 
Q 188.2125 131.990171 188.9625 131.697367 
L 199 132.277235 
Q 197.7875 132.732708 195.8375 133.169045 
Q 193.8875 133.605381 190.95 133.940288 
Q 188.025 134.275195 183.975 134.481881 
Q 179.9375 134.688567 174.4625 134.688567 
Q 167.325 134.688567 162.0875 134.363228 
Q 156.85 134.035976 153.425 133.452281 
Q 150.0125 132.868585 148.35 132.068635 
Q 146.7 131.266772 146.7 130.315635 
Q 146.7 129.328137 148.35 128.533929 
Q 150.0125 127.737807 153.375 127.17899 
Q 156.7375 126.620173 161.875 126.3178 
Q 167.0125 126.015427 173.9625 126.015427 
Q 179.35 126.015427 183.3875 126.189578 
Q 187.4375 126.361816 190.3875 126.677586 
Q 193.3375 126.991442 195.2625 127.418209 
Q 197.2 127.844977 198.3 128.359777 
L 188.1375 128.784631 
Q 187.5875 128.514791 186.45 128.267917 
Q 185.325 128.019129 183.5875 127.827753 
Q 181.85 127.636378 179.5 127.519638 
Q 177.1625 127.402899 174.2 127.402899 
Q 170.0125 127.402899 167 127.609585 
Q 164 127.816271 162.0625 128.199022 
Q 160.1375 128.581773 159.2125 129.117624 
Q 158.3 129.651562 158.3 130.315635 
Q 158.3 130.973967 159.2125 131.521301 
Q 160.1375 132.068635 162.0875 132.462869 
Q 164.0375 132.857103 167.1 133.079098 
Q 170.175 133.29918 174.4625 133.29918 
z
" style="fill:#0000ff;"/>
   </g>
   <g id="text_23">
    <path d="M 187.675 124.21841 
L 182.7875 104.841636 
L 161.8125 104.841636 
L 156.925 124.21841 
L 145.4 124.21841 
L 165.4875 48.382021 
L 179.075 48.382021 
L 199.075 124.21841 
z
M 174.775 71.100212 
Q 174.3125 69.205594 173.8625 67.293753 
Q 173.4125 65.381911 173.075 63.797321 
Q 172.75 62.212732 172.5375 61.196527 
Q 172.325 60.163099 172.275 60.059757 
Q 172.2375 60.214771 172.0375 61.248199 
Q 171.85 62.264403 171.5125 63.831769 
Q 171.1875 65.381911 170.7375 67.293753 
Q 170.2875 69.205594 169.825 71.100212 
L 164.3875 92.888319 
L 180.2125 92.888319 
z
" style="fill:#ff0000;"/>
   </g>
   <g id="text_24">
    <path d="M 238.6625 134.568 
Q 241.9125 134.568 244.275 134.568 
Q 246.6375 134.568 248.375 134.568 
Q 250.1125 134.568 251.2625 134.568 
Q 252.4125 134.568 253.1625 134.568 
L 263.2 134.568 
Q 261.9875 134.568 260.0375 134.568 
Q 258.0875 134.568 255.15 134.568 
Q 252.225 134.568 248.175 134.568 
Q 244.1375 134.568 238.6625 134.568 
Q 231.525 134.568 226.2875 134.568 
Q 221.05 134.568 217.625 134.568 
Q 214.2125 134.568 212.55 134.568 
Q 210.9 134.568 210.9 134.568 
Q 210.9 134.568 212.55 134.568 
Q 214.2125 134.568 217.575 134.568 
Q 220.9375 134.568 226.075 134.568 
Q 231.2125 134.568 238.1625 134.568 
Q 243.55 134.568 247.5875 134.568 
Q 251.6375 134.568 254.5875 134.568 
Q 257.5375 134.568 259.4625 134.568 
Q 261.4 134.568 262.5 134.568 
L 252.3375 134.568 
Q 251.7875 134.568 250.65 134.568 
Q 249.525 134.568 247.7875 134.568 
Q 246.05 134.568 243.7 134.568 
Q 241.3625 134.568 238.4 134.568 
Q 234.2125 134.568 231.2 134.568 
Q 228.2 134.568 226.2625 134.568 
Q 224.3375 134.568 223.4125 134.568 
Q 222.5 134.568 222.5 134.568 
Q 222.5 134.568 223.4125 134.568 
Q 224.3375 134.568 226.2875 134.568 
Q 228.2375 134.568 231.3 134.568 
Q 234.375 134.568 238.6625 134.568 
z
" style="fill:#0000ff;"/>
   </g>
   <g id="text_25">
    <path d="M 236.875 134.568 
Q 239.375 134.568 241.675 134.568 
Q 243.9875 134.568 245.95 134.568 
Q 247.925 134.568 249.5 134.568 
Q 251.0875 134.568 252.1125 134.568 
L 252.1125 134.568 
L 238.675 134.568 
L 238.675 134.568 
L 262.65 134.568 
L 262.65 134.568 
Q 260.775 134.568 258.1125 134.568 
Q 255.4625 134.568 252.1375 134.568 
Q 248.825 134.568 244.9 134.568 
Q 240.975 134.568 236.5625 134.568 
Q 229.25 134.568 223.975 134.568 
Q 218.7125 134.568 215.3125 134.568 
Q 211.9125 134.568 210.2875 134.568 
Q 208.675 134.568 208.675 134.568 
Q 208.675 134.568 210.3875 134.568 
Q 212.1125 134.568 215.6 134.568 
Q 219.1 134.568 224.3875 134.568 
Q 229.6875 134.568 236.8375 134.568 
Q 242.025 134.568 246.0625 134.568 
Q 250.1125 134.568 253.1375 134.568 
Q 256.175 134.568 258.225 134.568 
Q 260.275 134.568 261.4875 134.568 
L 250.8625 134.568 
Q 250.15 134.568 248.975 134.568 
Q 247.8125 134.568 246.075 134.568 
Q 244.3375 134.568 242.05 134.568 
Q 239.7625 134.568 236.8375 134.568 
Q 232.5375 134.568 229.4125 134.568 
Q 226.2875 134.568 224.25 134.568 
Q 222.225 134.568 221.25 134.568 
Q 220.275 134.568 220.275 134.568 
Q 220.275 134.568 221.2625 134.568 
Q 222.2625 134.568 224.3125 134.568 
Q 226.3625 134.568 229.4875 134.568 
Q 232.6125 134.568 236.875 134.568 
z
" style="fill:#ffa500;"/>
   </g>
   <g id="text_26">
    <path d="M 242.26875 134.568 
L 242.26875 134.568 
L 230.74375 134.568 
L 230.74375 134.568 
L 212.96875 134.568 
L 212.96875 134.568 
L 260.08125 134.568 
L 260.08125 134.568 
z
" style="fill:#006400;"/>
   </g>
   <g id="text_27">
    <path d="M 251.875 134.568 
L 246.9875 106.443 
L 226.0125 106.443 
L 221.125 134.568 
L 209.6 134.568 
L 229.6875 24.493 
L 243.275 24.493 
L 263.275 134.568 
z
M 238.975 57.468 
Q 238.5125 54.718 238.0625 51.943 
Q 237.6125 49.168 237.275 46.868 
Q 236.95 44.568 236.7375 43.093 
Q 236.525 41.593 236.475 41.443 
Q 236.4375 41.668 236.2375 43.168 
Q 236.05 44.643 235.7125 46.918 
Q 235.3875 49.168 234.9375 51.943 
Q 234.4875 54.718 234.025 57.468 
L 228.5875 89.093 
L 244.4125 89.093 
z
" style="fill:#ff0000;"/>
   </g>
   <g id="text_28">
    <path d="M 302.8625 134.568 
Q 306.1125 134.568 308.475 134.568 
Q 310.8375 134.568 312.575 134.568 
Q 314.3125 134.568 315.4625 134.568 
Q 316.6125 134.568 317.3625 134.568 
L 327.4 134.568 
Q 326.1875 134.568 324.2375 134.568 
Q 322.2875 134.568 319.35 134.568 
Q 316.425 134.568 312.375 134.568 
Q 308.3375 134.568 302.8625 134.568 
Q 295.725 134.568 290.4875 134.568 
Q 285.25 134.568 281.825 134.568 
Q 278.4125 134.568 276.75 134.568 
Q 275.1 134.568 275.1 134.568 
Q 275.1 134.568 276.75 134.568 
Q 278.4125 134.568 281.775 134.568 
Q 285.1375 134.568 290.275 134.568 
Q 295.4125 134.568 302.3625 134.568 
Q 307.75 134.568 311.7875 134.568 
Q 315.8375 134.568 318.7875 134.568 
Q 321.7375 134.568 323.6625 134.568 
Q 325.6 134.568 326.7 134.568 
L 316.5375 134.568 
Q 315.9875 134.568 314.85 134.568 
Q 313.725 134.568 311.9875 134.568 
Q 310.25 134.568 307.9 134.568 
Q 305.5625 134.568 302.6 134.568 
Q 298.4125 134.568 295.4 134.568 
Q 292.4 134.568 290.4625 134.568 
Q 288.5375 134.568 287.6125 134.568 
Q 286.7 134.568 286.7 134.568 
Q 286.7 134.568 287.6125 134.568 
Q 288.5375 134.568 290.4875 134.568 
Q 292.4375 134.568 295.5 134.568 
Q 298.575 134.568 302.8625 134.568 
z
" style="fill:#0000ff;"/>
   </g>
   <g id="text_29">
    <path d="M 306.46875 134.568 
L 306.46875 134.568 
L 294.94375 134.568 
L 294.94375 134.568 
L 277.16875 134.568 
L 277.16875 134.568 
L 324.28125 134.568 
L 324.28125 134.568 
z
" style="fill:#006400;"/>
   </g>
   <g id="text_30">
    <path d="M 301.075 133.306835 
Q 303.575 133.306835 305.875 133.247509 
Q 308.1875 133.186269 310.15 133.088667 
Q 312.125 132.989152 313.7 132.86093 
Q 315.2875 132.732708 316.3125 132.594918 
L 316.3125 131.427527 
L 302.875 131.427527 
L 302.875 130.12426 
L 326.85 130.12426 
L 326.85 133.22263 
Q 324.975 133.515434 322.3125 133.781446 
Q 319.6625 134.047459 316.3375 134.248403 
Q 313.025 134.447433 309.1 134.568 
Q 305.175 134.688567 300.7625 134.688567 
Q 293.45 134.688567 288.175 134.363228 
Q 282.9125 134.035976 279.5125 133.452281 
Q 276.1125 132.868585 274.4875 132.068635 
Q 272.875 131.266772 272.875 130.315635 
Q 272.875 129.328137 274.5875 128.533929 
Q 276.3125 127.737807 279.8 127.17899 
Q 283.3 126.620173 288.5875 126.3178 
Q 293.8875 126.015427 301.0375 126.015427 
Q 306.225 126.015427 310.2625 126.172355 
Q 314.3125 126.327369 317.3375 126.614432 
Q 320.375 126.901495 322.425 127.305298 
Q 324.475 127.7091 325.6875 128.210504 
L 315.0625 128.700426 
Q 314.35 128.438241 313.175 128.202849 
Q 312.0125 127.965543 310.275 127.789478 
Q 308.5375 127.613412 306.25 127.508156 
Q 303.9625 127.402899 301.0375 127.402899 
Q 296.7375 127.402899 293.6125 127.609585 
Q 290.4875 127.816271 288.45 128.199022 
Q 286.425 128.581773 285.45 129.117624 
Q 284.475 129.651562 284.475 130.315635 
Q 284.475 130.973967 285.4625 131.525129 
Q 286.4625 132.074377 288.5125 132.46861 
Q 290.5625 132.862844 293.6875 133.084839 
Q 296.8125 133.306835 301.075 133.306835 
z
" style="fill:#ffa500;"/>
   </g>
   <g id="text_31">
    <path d="M 316.075 124.21841 
L 311.1875 104.841636 
L 290.2125 104.841636 
L 285.325 124.21841 
L 273.8 124.21841 
L 293.8875 48.382021 
L 307.475 48.382021 
L 327.475 124.21841 
z
M 303.175 71.100212 
Q 302.7125 69.205594 302.2625 67.293753 
Q 301.8125 65.381911 301.475 63.797321 
Q 301.15 62.212732 300.9375 61.196527 
Q 300.725 60.163099 300.675 60.059757 
Q 300.6375 60.214771 300.4375 61.248199 
Q 300.25 62.264403 299.9125 63.831769 
Q 299.5875 65.381911 299.1375 67.293753 
Q 298.6875 69.205594 298.225 71.100212 
L 292.7875 92.888319 
L 308.6125 92.888319 
z
" style="fill:#ff0000;"/>
   </g>
   <g id="text_32">
    <path d="M 370.66875 134.568 
L 370.66875 134.568 
L 359.14375 134.568 
L 359.14375 134.568 
L 341.36875 134.568 
L 341.36875 134.568 
L 388.48125 134.568 
L 388.48125 134.568 
z
" style="fill:#006400;"/>
   </g>
   <g id="text_33">
    <path d="M 380.275 134.568 
L 375.3875 133.669356 
L 354.4125 133.669356 
L 349.525 134.568 
L 338 134.568 
L 358.0875 131.050906 
L 371.675 131.050906 
L 391.675 134.568 
z
M 367.375 132.104516 
Q 366.9125 132.016649 366.4625 131.927983 
Q 366.0125 131.839316 365.675 131.765827 
Q 365.35 131.692338 365.1375 131.645209 
Q 364.925 131.597282 364.875 131.592489 
Q 364.8375 131.599678 364.6375 131.647606 
Q 364.45 131.694735 364.1125 131.767425 
Q 363.7875 131.839316 363.3375 131.927983 
Q 362.8875 132.016649 362.425 132.104516 
L 356.9875 133.114992 
L 372.8125 133.114992 
z
" style="fill:#ff0000;"/>
   </g>
   <g id="text_34">
    <path d="M 367.0625 128.129713 
Q 370.3125 128.129713 372.675 127.896465 
Q 375.0375 127.663216 376.775 127.28299 
Q 378.5125 126.902764 379.6625 126.423487 
Q 380.8125 125.94421 381.5625 125.455347 
L 391.6 126.423487 
Q 390.3875 127.18394 388.4375 127.912441 
Q 386.4875 128.640941 383.55 129.200098 
Q 380.625 129.759254 376.575 130.104334 
Q 372.5375 130.449413 367.0625 130.449413 
Q 359.925 130.449413 354.6875 129.906233 
Q 349.45 129.359857 346.025 128.385327 
Q 342.6125 127.410797 340.95 126.075212 
Q 339.3 124.736432 339.3 123.148427 
Q 339.3 121.499715 340.95 120.173715 
Q 342.6125 118.84452 345.975 117.911528 
Q 349.3375 116.978535 354.475 116.473697 
Q 359.6125 115.968858 366.5625 115.968858 
Q 371.95 115.968858 375.9875 116.25962 
Q 380.0375 116.547186 382.9875 117.074391 
Q 385.9375 117.5984 387.8625 118.310925 
Q 389.8 119.02345 390.9 119.882954 
L 380.7375 120.592284 
Q 380.1875 120.141763 379.05 119.729585 
Q 377.925 119.314212 376.1875 118.994694 
Q 374.45 118.675176 372.1 118.48027 
Q 369.7625 118.285364 366.8 118.285364 
Q 362.6125 118.285364 359.6 118.630443 
Q 356.6 118.975523 354.6625 119.614559 
Q 352.7375 120.253595 351.8125 121.148245 
Q 350.9 122.0397 350.9 123.148427 
Q 350.9 124.247569 351.8125 125.161391 
Q 352.7375 126.075212 354.6875 126.733419 
Q 356.6375 127.391626 359.7 127.762267 
Q 362.775 128.129713 367.0625 128.129713 
z
" style="fill:#0000ff;"/>
   </g>
   <g id="text_35">
    <path d="M 365.275 110.336555 
Q 367.775 110.336555 370.075 110.212742 
Q 372.3875 110.084935 374.35 109.881242 
Q 376.325 109.673556 377.9 109.405959 
Q 379.4875 109.138363 380.5125 108.850797 
L 380.5125 106.414472 
L 367.075 106.414472 
L 367.075 103.694575 
L 391.05 103.694575 
L 391.05 110.16082 
Q 389.175 110.771899 386.5125 111.327061 
Q 383.8625 111.882224 380.5375 112.301591 
Q 377.225 112.716964 373.3 112.968585 
Q 369.375 113.220205 364.9625 113.220205 
Q 357.65 113.220205 352.375 112.541229 
Q 347.1125 111.85826 343.7125 110.640097 
Q 340.3125 109.421935 338.6875 107.752454 
Q 337.075 106.078978 337.075 104.093973 
Q 337.075 102.033082 338.7875 100.375582 
Q 340.5125 98.714089 344 97.547848 
Q 347.5 96.381608 352.7875 95.75056 
Q 358.0875 95.119512 365.2375 95.119512 
Q 370.425 95.119512 374.4625 95.447018 
Q 378.5125 95.770529 381.5375 96.369626 
Q 384.575 96.968722 386.625 97.811451 
Q 388.675 98.654179 389.8875 99.700601 
L 379.2625 100.723058 
Q 378.55 100.175884 377.375 99.684625 
Q 376.2125 99.189372 374.475 98.821926 
Q 372.7375 98.45448 370.45 98.234812 
Q 368.1625 98.015143 365.2375 98.015143 
Q 360.9375 98.015143 357.8125 98.446493 
Q 354.6875 98.877842 352.65 99.676637 
Q 350.625 100.475432 349.65 101.593745 
Q 348.675 102.708064 348.675 104.093973 
Q 348.675 105.4679 349.6625 106.618165 
Q 350.6625 107.764436 352.7125 108.587194 
Q 354.7625 109.409953 357.8875 109.873254 
Q 361.0125 110.336555 365.275 110.336555 
z
" style="fill:#ffa500;"/>
   </g>
   <g id="text_36">
    <path d="M 449.375 134.568 
L 444.4875 134.568 
L 423.5125 134.568 
L 418.625 134.568 
L 407.1 134.568 
L 427.1875 134.568 
L 440.775 134.568 
L 460.775 134.568 
z
M 436.475 134.568 
Q 436.0125 134.568 435.5625 134.568 
Q 435.1125 134.568 434.775 134.568 
Q 434.45 134.568 434.2375 134.568 
Q 434.025 134.568 433.975 134.568 
Q 433.9375 134.568 433.7375 134.568 
Q 433.55 134.568 433.2125 134.568 
Q 432.8875 134.568 432.4375 134.568 
Q 431.9875 134.568 431.525 134.568 
L 426.0875 134.568 
L 441.9125 134.568 
z
" style="fill:#ff0000;"/>
   </g>
   <g id="text_37">
    <path d="M 434.375 134.568 
Q 436.875 134.568 439.175 134.568 
Q 441.4875 134.568 443.45 134.568 
Q 445.425 134.568 447 134.568 
Q 448.5875 134.568 449.6125 134.568 
L 449.6125 134.568 
L 436.175 134.568 
L 436.175 134.568 
L 460.15 134.568 
L 460.15 134.568 
Q 458.275 134.568 455.6125 134.568 
Q 452.9625 134.568 449.6375 134.568 
Q 446.325 134.568 442.4 134.568 
Q 438.475 134.568 434.0625 134.568 
Q 426.75 134.568 421.475 134.568 
Q 416.2125 134.568 412.8125 134.568 
Q 409.4125 134.568 407.7875 134.568 
Q 406.175 134.568 406.175 134.568 
Q 406.175 134.568 407.8875 134.568 
Q 409.6125 134.568 413.1 134.568 
Q 416.6 134.568 421.8875 134.568 
Q 427.1875 134.568 434.3375 134.568 
Q 439.525 134.568 443.5625 134.568 
Q 447.6125 134.568 450.6375 134.568 
Q 453.675 134.568 455.725 134.568 
Q 457.775 134.568 458.9875 134.568 
L 448.3625 134.568 
Q 447.65 134.568 446.475 134.568 
Q 445.3125 134.568 443.575 134.568 
Q 441.8375 134.568 439.55 134.568 
Q 437.2625 134.568 434.3375 134.568 
Q 430.0375 134.568 426.9125 134.568 
Q 423.7875 134.568 421.75 134.568 
Q 419.725 134.568 418.75 134.568 
Q 417.775 134.568 417.775 134.568 
Q 417.775 134.568 418.7625 134.568 
Q 419.7625 134.568 421.8125 134.568 
Q 423.8625 134.568 426.9875 134.568 
Q 430.1125 134.568 434.375 134.568 
z
" style="fill:#ffa500;"/>
   </g>
   <g id="text_38">
    <path d="M 439.76875 127.504328 
L 439.76875 134.568 
L 428.24375 134.568 
L 428.24375 127.504328 
L 410.46875 127.504328 
L 410.46875 126.141734 
L 457.58125 126.141734 
L 457.58125 127.504328 
z
" style="fill:#006400;"/>
   </g>
   <g id="text_39">
    <path d="M 436.1625 112.799031 
Q 439.4125 112.799031 441.775 111.541694 
Q 444.1375 110.284356 445.875 108.234724 
Q 447.6125 106.185092 448.7625 103.601522 
Q 449.9125 101.017952 450.6625 98.382711 
L 460.7 103.601522 
Q 459.4875 107.700786 457.5375 111.627813 
Q 455.5875 115.554839 452.65 118.569004 
Q 449.725 121.583169 445.675 123.443339 
Q 441.6375 125.30351 436.1625 125.30351 
Q 429.025 125.30351 423.7875 122.375464 
Q 418.55 119.430194 415.125 114.176935 
Q 411.7125 108.923676 410.05 101.724128 
Q 408.4 94.507356 408.4 85.947127 
Q 408.4 77.059647 410.05 69.91177 
Q 411.7125 62.746669 415.075 57.71732 
Q 418.4375 52.68797 423.575 49.96661 
Q 428.7125 47.24525 435.6625 47.24525 
Q 441.05 47.24525 445.0875 48.812616 
Q 449.1375 50.362757 452.0875 53.204684 
Q 455.0375 56.029388 456.9625 59.870295 
Q 458.9 63.711202 460 68.344404 
L 449.8375 72.168088 
Q 449.2875 69.739532 448.15 67.517662 
Q 447.025 65.278568 445.2875 63.556188 
Q 443.55 61.833808 441.2 60.783156 
Q 438.8625 59.732504 435.9 59.732504 
Q 431.7125 59.732504 428.7 61.592675 
Q 425.7 63.452845 423.7625 66.897605 
Q 421.8375 70.342365 420.9125 75.165029 
Q 420 79.970469 420 85.947127 
Q 420 91.872115 420.9125 96.798121 
Q 421.8375 101.724128 423.7875 105.272231 
Q 425.7375 108.820333 428.8 110.818294 
Q 431.875 112.799031 436.1625 112.799031 
z
" style="fill:#0000ff;"/>
   </g>
   <g id="text_40">
    <path d="M 503.96875 134.568 
L 503.96875 134.568 
L 492.44375 134.568 
L 492.44375 134.568 
L 474.66875 134.568 
L 474.66875 134.568 
L 521.78125 134.568 
L 521.78125 134.568 
z
" style="fill:#006400;"/>
   </g>
   <g id="text_41">
    <path d="M 513.575 134.568 
L 508.6875 133.051961 
L 487.7125 133.051961 
L 482.825 134.568 
L 471.3 134.568 
L 491.3875 128.634562 
L 504.975 128.634562 
L 524.975 134.568 
z
M 500.675 130.412033 
Q 500.2125 130.263798 499.7625 130.114215 
Q 499.3125 129.964633 498.975 129.840655 
Q 498.65 129.716676 498.4375 129.637169 
Q 498.225 129.556313 498.175 129.548228 
Q 498.1375 129.560356 497.9375 129.641211 
Q 497.75 129.720719 497.4125 129.84335 
Q 497.0875 129.964633 496.6375 130.114215 
Q 496.1875 130.263798 495.725 130.412033 
L 490.2875 132.116734 
L 506.1125 132.116734 
z
" style="fill:#ff0000;"/>
   </g>
   <g id="text_42">
    <path d="M 498.575 126.392172 
Q 501.075 126.392172 503.375 126.350397 
Q 505.6875 126.307274 507.65 126.238547 
Q 509.625 126.168472 511.2 126.078184 
Q 512.7875 125.987895 513.8125 125.890869 
L 513.8125 125.068839 
L 500.375 125.068839 
L 500.375 124.15113 
L 524.35 124.15113 
L 524.35 126.332878 
Q 522.475 126.539059 519.8125 126.726374 
Q 517.1625 126.913689 513.8375 127.055186 
Q 510.525 127.195336 506.6 127.280234 
Q 502.675 127.365132 498.2625 127.365132 
Q 490.95 127.365132 485.675 127.136042 
Q 480.4125 126.905604 477.0125 126.494589 
Q 473.6125 126.083574 471.9875 125.520282 
Q 470.375 124.955641 470.375 124.285889 
Q 470.375 123.590533 472.0875 123.031283 
Q 473.8125 122.470686 477.3 122.077189 
Q 480.8 121.683693 486.0875 121.470774 
Q 491.3875 121.257855 498.5375 121.257855 
Q 503.725 121.257855 507.7625 121.368357 
Q 511.8125 121.477512 514.8375 121.67965 
Q 517.875 121.881789 519.925 122.16613 
Q 521.975 122.450472 523.1875 122.80354 
L 512.5625 123.148523 
Q 511.85 122.963903 510.675 122.79815 
Q 509.5125 122.631049 507.775 122.507071 
Q 506.0375 122.383092 503.75 122.308975 
Q 501.4625 122.234857 498.5375 122.234857 
Q 494.2375 122.234857 491.1125 122.380397 
Q 487.9875 122.525937 485.95 122.795455 
Q 483.925 123.064973 482.95 123.442298 
Q 481.975 123.818275 481.975 124.285889 
Q 481.975 124.74946 482.9625 125.137566 
Q 483.9625 125.524324 486.0125 125.801928 
Q 488.0625 126.079531 491.1875 126.235852 
Q 494.3125 126.392172 498.575 126.392172 
z
" style="fill:#ffa500;"/>
   </g>
   <g id="text_43">
    <path d="M 500.3625 112.844851 
Q 503.6125 112.844851 505.975 112.057859 
Q 508.3375 111.270866 510.075 109.98796 
Q 511.8125 108.705055 512.9625 107.087947 
Q 514.1125 105.470839 514.8625 103.821389 
L 524.9 107.087947 
Q 523.6875 109.653758 521.7375 112.111762 
Q 519.7875 114.569766 516.85 116.456392 
Q 513.925 118.343018 509.875 119.507335 
Q 505.8375 120.671653 500.3625 120.671653 
Q 493.225 120.671653 487.9875 118.838931 
Q 482.75 116.995428 479.325 113.707309 
Q 475.9125 110.419189 474.25 105.912849 
Q 472.6 101.395727 472.6 96.03771 
Q 472.6 90.474859 474.25 86.00086 
Q 475.9125 81.516081 479.275 78.368111 
Q 482.6375 75.220141 487.775 73.516788 
Q 492.9125 71.813434 499.8625 71.813434 
Q 505.25 71.813434 509.2875 72.79448 
Q 513.3375 73.764744 516.2875 75.543563 
Q 519.2375 77.311601 521.1625 79.715701 
Q 523.1 82.119802 524.2 85.019815 
L 514.0375 87.413135 
Q 513.4875 85.893053 512.35 84.502341 
Q 511.225 83.100847 509.4875 82.022775 
Q 507.75 80.944703 505.4 80.287079 
Q 503.0625 79.629455 500.1 79.629455 
Q 495.9125 79.629455 492.9 80.793773 
Q 489.9 81.958091 487.9625 84.114235 
Q 486.0375 86.270378 485.1125 89.28898 
Q 484.2 92.2968 484.2 96.03771 
Q 484.2 99.746277 485.1125 102.829563 
Q 486.0375 105.912849 487.9875 108.133677 
Q 489.9375 110.354505 493 111.605068 
Q 496.075 112.844851 500.3625 112.844851 
z
" style="fill:#0000ff;"/>
   </g>
   <g id="text_44">
    <path d="M 577.775 134.568 
L 572.8875 134.568 
L 551.9125 134.568 
L 547.025 134.568 
L 535.5 134.568 
L 555.5875 134.568 
L 569.175 134.568 
L 589.175 134.568 
z
M 564.875 134.568 
Q 564.4125 134.568 563.9625 134.568 
Q 563.5125 134.568 563.175 134.568 
Q 562.85 134.568 562.6375 134.568 
Q 562.425 134.568 562.375 134.568 
Q 562.3375 134.568 562.1375 134.568 
Q 561.95 134.568 561.6125 134.568 
Q 561.2875 134.568 560.8375 134.568 
Q 560.3875 134.568 559.925 134.568 
L 554.4875 134.568 
L 570.3125 134.568 
z
" style="fill:#ff0000;"/>
   </g>
   <g id="text_45">
    <path d="M 564.5625 133.975028 
Q 567.8125 133.975028 570.175 133.909738 
Q 572.5375 133.844448 574.275 133.738017 
Q 576.0125 133.631586 577.1625 133.49743 
Q 578.3125 133.363273 579.0625 133.226433 
L 589.1 133.49743 
Q 587.8875 133.710292 585.9375 133.91421 
Q 583.9875 134.118128 581.05 134.274644 
Q 578.125 134.43116 574.075 134.527753 
Q 570.0375 134.624346 564.5625 134.624346 
Q 557.425 134.624346 552.1875 134.472302 
Q 546.95 134.319363 543.525 134.046578 
Q 540.1125 133.773793 538.45 133.399943 
Q 536.8 133.025198 536.8 132.580693 
Q 536.8 132.119194 538.45 131.748027 
Q 540.1125 131.375966 543.475 131.114807 
Q 546.8375 130.853649 551.975 130.712337 
Q 557.1125 130.571026 564.0625 130.571026 
Q 569.45 130.571026 573.4875 130.652414 
Q 577.5375 130.732908 580.4875 130.880481 
Q 583.4375 131.027158 585.3625 131.226605 
Q 587.3 131.426051 588.4 131.666639 
L 578.2375 131.86519 
Q 577.6875 131.739083 576.55 131.623708 
Q 575.425 131.507439 573.6875 131.418002 
Q 571.95 131.328564 569.6 131.274007 
Q 567.2625 131.21945 564.3 131.21945 
Q 560.1125 131.21945 557.1 131.316042 
Q 554.1 131.412635 552.1625 131.591511 
Q 550.2375 131.770386 549.3125 132.020812 
Q 548.4 132.270344 548.4 132.580693 
Q 548.4 132.888359 549.3125 133.144151 
Q 550.2375 133.399943 552.1875 133.584184 
Q 554.1375 133.768426 557.2 133.872174 
Q 560.275 133.975028 564.5625 133.975028 
z
" style="fill:#0000ff;"/>
   </g>
   <g id="text_46">
    <path d="M 562.775 129.14181 
Q 565.275 129.14181 567.575 129.114084 
Q 569.8875 129.085464 571.85 129.039851 
Q 573.825 128.993343 575.4 128.93342 
Q 576.9875 128.873497 578.0125 128.809102 
L 578.0125 128.263531 
L 564.575 128.263531 
L 564.575 127.65446 
L 588.55 127.65446 
L 588.55 129.102458 
Q 586.675 129.239297 584.0125 129.363616 
Q 581.3625 129.487934 578.0375 129.581844 
Q 574.725 129.674859 570.8 129.731205 
Q 566.875 129.787551 562.4625 129.787551 
Q 555.15 129.787551 549.875 129.635507 
Q 544.6125 129.482568 541.2125 129.209783 
Q 537.8125 128.936998 536.1875 128.563148 
Q 534.575 128.188403 534.575 127.743898 
Q 534.575 127.282399 536.2875 126.911232 
Q 538.0125 126.539171 541.5 126.278013 
Q 545 126.016854 550.2875 125.875543 
Q 555.5875 125.734231 562.7375 125.734231 
Q 567.925 125.734231 571.9625 125.80757 
Q 576.0125 125.880014 579.0375 126.014171 
Q 582.075 126.148328 584.125 126.337042 
Q 586.175 126.525755 587.3875 126.760082 
L 576.7625 126.989043 
Q 576.05 126.866513 574.875 126.756505 
Q 573.7125 126.645602 571.975 126.563319 
Q 570.2375 126.481036 567.95 126.431846 
Q 565.6625 126.382655 562.7375 126.382655 
Q 558.4375 126.382655 555.3125 126.479248 
Q 552.1875 126.57584 550.15 126.754716 
Q 548.125 126.933591 547.15 127.184017 
Q 546.175 127.433549 546.175 127.743898 
Q 546.175 128.051564 547.1625 128.309144 
Q 548.1625 128.565831 550.2125 128.750073 
Q 552.2625 128.934315 555.3875 129.038062 
Q 558.5125 129.14181 562.775 129.14181 
z
" style="fill:#ffa500;"/>
   </g>
   <g id="text_47">
    <path d="M 568.16875 65.473741 
L 568.16875 124.89441 
L 556.64375 124.89441 
L 556.64375 65.473741 
L 538.86875 65.473741 
L 538.86875 54.011395 
L 585.98125 54.011395 
L 585.98125 65.473741 
z
" style="fill:#006400;"/>
   </g>
   <g id="text_48">
    <path d="M 617.175 134.568 
Q 619.675 134.568 621.975 134.568 
Q 624.2875 134.568 626.25 134.568 
Q 628.225 134.568 629.8 134.568 
Q 631.3875 134.568 632.4125 134.568 
L 632.4125 134.568 
L 618.975 134.568 
L 618.975 134.568 
L 642.95 134.568 
L 642.95 134.568 
Q 641.075 134.568 638.4125 134.568 
Q 635.7625 134.568 632.4375 134.568 
Q 629.125 134.568 625.2 134.568 
Q 621.275 134.568 616.8625 134.568 
Q 609.55 134.568 604.275 134.568 
Q 599.0125 134.568 595.6125 134.568 
Q 592.2125 134.568 590.5875 134.568 
Q 588.975 134.568 588.975 134.568 
Q 588.975 134.568 590.6875 134.568 
Q 592.4125 134.568 595.9 134.568 
Q 599.4 134.568 604.6875 134.568 
Q 609.9875 134.568 617.1375 134.568 
Q 622.325 134.568 626.3625 134.568 
Q 630.4125 134.568 633.4375 134.568 
Q 636.475 134.568 638.525 134.568 
Q 640.575 134.568 641.7875 134.568 
L 631.1625 134.568 
Q 630.45 134.568 629.275 134.568 
Q 628.1125 134.568 626.375 134.568 
Q 624.6375 134.568 622.35 134.568 
Q 620.0625 134.568 617.1375 134.568 
Q 612.8375 134.568 609.7125 134.568 
Q 606.5875 134.568 604.55 134.568 
Q 602.525 134.568 601.55 134.568 
Q 600.575 134.568 600.575 134.568 
Q 600.575 134.568 601.5625 134.568 
Q 602.5625 134.568 604.6125 134.568 
Q 606.6625 134.568 609.7875 134.568 
Q 612.9125 134.568 617.175 134.568 
z
" style="fill:#ffa500;"/>
   </g>
   <g id="text_49">
    <path d="M 622.56875 134.568 
L 622.56875 134.568 
L 611.04375 134.568 
L 611.04375 134.568 
L 593.26875 134.568 
L 593.26875 134.568 
L 640.38125 134.568 
L 640.38125 134.568 
z
" style="fill:#006400;"/>
   </g>
   <g id="text_50">
    <path d="M 632.175 134.568 
L 627.2875 127.53675 
L 606.3125 127.53675 
L 601.425 134.568 
L 589.9 134.568 
L 609.9875 107.04925 
L 623.575 107.04925 
L 643.575 134.568 
z
M 619.275 115.293 
Q 618.8125 114.6055 618.3625 113.91175 
Q 617.9125 113.218 617.575 112.643 
Q 617.25 112.068 617.0375 111.69925 
Q 616.825 111.32425 616.775 111.28675 
Q 616.7375 111.343 616.5375 111.718 
Q 616.35 112.08675 616.0125 112.6555 
Q 615.6875 113.218 615.2375 113.91175 
Q 614.7875 114.6055 614.325 115.293 
L 608.8875 123.19925 
L 624.7125 123.19925 
z
" style="fill:#ff0000;"/>
   </g>
   <g id="text_51">
    <path d="M 618.9625 96.62425 
Q 622.2125 96.62425 624.575 96.168 
Q 626.9375 95.71175 628.675 94.968 
Q 630.4125 94.22425 631.5625 93.28675 
Q 632.7125 92.34925 633.4625 91.393 
L 643.5 93.28675 
Q 642.2875 94.77425 640.3375 96.19925 
Q 638.3875 97.62425 635.45 98.718 
Q 632.525 99.81175 628.475 100.48675 
Q 624.4375 101.16175 618.9625 101.16175 
Q 611.825 101.16175 606.5875 100.09925 
Q 601.35 99.0305 597.925 97.12425 
Q 594.5125 95.218 592.85 92.6055 
Q 591.2 89.98675 591.2 86.8805 
Q 591.2 83.6555 592.85 81.06175 
Q 594.5125 78.46175 597.875 76.63675 
Q 601.2375 74.81175 606.375 73.82425 
Q 611.5125 72.83675 618.4625 72.83675 
Q 623.85 72.83675 627.8875 73.4055 
Q 631.9375 73.968 634.8875 74.99925 
Q 637.8375 76.02425 639.7625 77.418 
Q 641.7 78.81175 642.8 80.493 
L 632.6375 81.8805 
Q 632.0875 80.99925 630.95 80.193 
Q 629.825 79.3805 628.0875 78.7555 
Q 626.35 78.1305 624 77.74925 
Q 621.6625 77.368 618.7 77.368 
Q 614.5125 77.368 611.5 78.043 
Q 608.5 78.718 606.5625 79.968 
Q 604.6375 81.218 603.7125 82.968 
Q 602.8 84.71175 602.8 86.8805 
Q 602.8 89.0305 603.7125 90.818 
Q 604.6375 92.6055 606.5875 93.893 
Q 608.5375 95.1805 611.6 95.9055 
Q 614.675 96.62425 618.9625 96.62425 
z
" style="fill:#0000ff;"/>
   </g>
   <g id="text_52">
    <path d="M 686.76875 134.568 
L 686.76875 134.568 
L 675.24375 134.568 
L 675.24375 134.568 
L 657.46875 134.568 
L 657.46875 134.568 
L 704.58125 134.568 
L 704.58125 134.568 
z
" style="fill:#006400;"/>
   </g>
   <g id="text_53">
    <path d="M 683.1625 134.28329 
Q 686.4125 134.28329 688.775 134.251942 
Q 691.1375 134.220594 692.875 134.169492 
Q 694.6125 134.11839 695.7625 134.053976 
Q 696.9125 133.989562 697.6625 133.92386 
L 707.7 134.053976 
Q 706.4875 134.15618 704.5375 134.254089 
Q 702.5875 134.351998 699.65 134.427148 
Q 696.725 134.502298 692.675 134.548676 
Q 688.6375 134.595054 683.1625 134.595054 
Q 676.025 134.595054 670.7875 134.522051 
Q 665.55 134.448619 662.125 134.317644 
Q 658.7125 134.186669 657.05 134.007168 
Q 655.4 133.827239 655.4 133.613813 
Q 655.4 133.392229 657.05 133.214017 
Q 658.7125 133.035375 662.075 132.909983 
Q 665.4375 132.78459 670.575 132.71674 
Q 675.7125 132.648891 682.6625 132.648891 
Q 688.05 132.648891 692.0875 132.687969 
Q 696.1375 132.726617 699.0875 132.797473 
Q 702.0375 132.867899 703.9625 132.963661 
Q 705.9 133.059423 707 133.174939 
L 696.8375 133.270272 
Q 696.2875 133.209723 695.15 133.154326 
Q 694.025 133.098501 692.2875 133.055558 
Q 690.55 133.012616 688.2 132.986421 
Q 685.8625 132.960225 682.9 132.960225 
Q 678.7125 132.960225 675.7 133.006604 
Q 672.7 133.052982 670.7625 133.138867 
Q 668.8375 133.224752 667.9125 133.344992 
Q 667 133.464802 667 133.613813 
Q 667 133.761536 667.9125 133.884352 
Q 668.8375 134.007168 670.7875 134.09563 
Q 672.7375 134.184092 675.8 134.233906 
Q 678.875 134.28329 683.1625 134.28329 
z
" style="fill:#0000ff;"/>
   </g>
   <g id="text_54">
    <path d="M 681.375 131.962667 
Q 683.875 131.962667 686.175 131.949354 
Q 688.4875 131.935613 690.45 131.913712 
Q 692.425 131.891382 694 131.86261 
Q 695.5875 131.833839 696.6125 131.80292 
L 696.6125 131.540969 
L 683.175 131.540969 
L 683.175 131.24853 
L 707.15 131.24853 
L 707.15 131.943772 
Q 705.275 132.009474 702.6125 132.069165 
Q 699.9625 132.128855 696.6375 132.173945 
Q 693.325 132.218605 689.4 132.245659 
Q 685.475 132.272713 681.0625 132.272713 
Q 673.75 132.272713 668.475 132.19971 
Q 663.2125 132.126278 659.8125 131.995303 
Q 656.4125 131.864328 654.7875 131.684827 
Q 653.175 131.504898 653.175 131.291472 
Q 653.175 131.069888 654.8875 130.891676 
Q 656.6125 130.713034 660.1 130.587642 
Q 663.6 130.462249 668.8875 130.394399 
Q 674.1875 130.32655 681.3375 130.32655 
Q 686.525 130.32655 690.5625 130.361763 
Q 694.6125 130.396547 697.6375 130.460961 
Q 700.675 130.525375 702.725 130.615984 
Q 704.775 130.706593 705.9875 130.819103 
L 695.3625 130.929036 
Q 694.65 130.870205 693.475 130.817385 
Q 692.3125 130.764136 690.575 130.724629 
Q 688.8375 130.685121 686.55 130.661503 
Q 684.2625 130.637885 681.3375 130.637885 
Q 677.0375 130.637885 673.9125 130.684263 
Q 670.7875 130.730641 668.75 130.816526 
Q 666.725 130.902412 665.75 131.022651 
Q 664.775 131.142461 664.775 131.291472 
Q 664.775 131.439195 665.7625 131.56287 
Q 666.7625 131.686116 668.8125 131.774578 
Q 670.8625 131.86304 673.9875 131.912853 
Q 677.1125 131.962667 681.375 131.962667 
z
" style="fill:#ffa500;"/>
   </g>
   <g id="text_55">
    <path d="M 696.375 129.923318 
L 691.4875 106.734263 
L 670.5125 106.734263 
L 665.625 129.923318 
L 654.1 129.923318 
L 674.1875 39.166508 
L 687.775 39.166508 
L 707.775 129.923318 
z
M 683.475 66.354387 
Q 683.0125 64.087013 682.5625 61.799026 
Q 682.1125 59.511039 681.775 57.61469 
Q 681.45 55.71834 681.2375 54.502203 
Q 681.025 53.265454 680.975 53.141779 
Q 680.9375 53.327291 680.7375 54.564041 
Q 680.55 55.780178 680.2125 57.655915 
Q 679.8875 59.511039 679.4375 61.799026 
Q 678.9875 64.087013 678.525 66.354387 
L 673.0875 92.429192 
L 688.9125 92.429192 
z
" style="fill:#ff0000;"/>
   </g>
   <g id="text_56">
    <path d="M 760.575 134.568 
L 755.6875 134.568 
L 734.7125 134.568 
L 729.825 134.568 
L 718.3 134.568 
L 738.3875 134.568 
L 751.975 134.568 
L 771.975 134.568 
z
M 747.675 134.568 
Q 747.2125 134.568 746.7625 134.568 
Q 746.3125 134.568 745.975 134.568 
Q 745.65 134.568 745.4375 134.568 
Q 745.225 134.568 745.175 134.568 
Q 745.1375 134.568 744.9375 134.568 
Q 744.75 134.568 744.4125 134.568 
Q 744.0875 134.568 743.6375 134.568 
Q 743.1875 134.568 742.725 134.568 
L 737.2875 134.568 
L 753.1125 134.568 
z
" style="fill:#ff0000;"/>
   </g>
   <g id="text_57">
    <path d="M 747.3625 134.568 
Q 750.6125 134.568 752.975 134.568 
Q 755.3375 134.568 757.075 134.568 
Q 758.8125 134.568 759.9625 134.568 
Q 761.1125 134.568 761.8625 134.568 
L 771.9 134.568 
Q 770.6875 134.568 768.7375 134.568 
Q 766.7875 134.568 763.85 134.568 
Q 760.925 134.568 756.875 134.568 
Q 752.8375 134.568 747.3625 134.568 
Q 740.225 134.568 734.9875 134.568 
Q 729.75 134.568 726.325 134.568 
Q 722.9125 134.568 721.25 134.568 
Q 719.6 134.568 719.6 134.568 
Q 719.6 134.568 721.25 134.568 
Q 722.9125 134.568 726.275 134.568 
Q 729.6375 134.568 734.775 134.568 
Q 739.9125 134.568 746.8625 134.568 
Q 752.25 134.568 756.2875 134.568 
Q 760.3375 134.568 763.2875 134.568 
Q 766.2375 134.568 768.1625 134.568 
Q 770.1 134.568 771.2 134.568 
L 761.0375 134.568 
Q 760.4875 134.568 759.35 134.568 
Q 758.225 134.568 756.4875 134.568 
Q 754.75 134.568 752.4 134.568 
Q 750.0625 134.568 747.1 134.568 
Q 742.9125 134.568 739.9 134.568 
Q 736.9 134.568 734.9625 134.568 
Q 733.0375 134.568 732.1125 134.568 
Q 731.2 134.568 731.2 134.568 
Q 731.2 134.568 732.1125 134.568 
Q 733.0375 134.568 734.9875 134.568 
Q 736.9375 134.568 740 134.568 
Q 743.075 134.568 747.3625 134.568 
z
" style="fill:#0000ff;"/>
   </g>
   <g id="text_58">
    <path d="M 745.575 134.568 
Q 748.075 134.568 750.375 134.568 
Q 752.6875 134.568 754.65 134.568 
Q 756.625 134.568 758.2 134.568 
Q 759.7875 134.568 760.8125 134.568 
L 760.8125 134.568 
L 747.375 134.568 
L 747.375 134.568 
L 771.35 134.568 
L 771.35 134.568 
Q 769.475 134.568 766.8125 134.568 
Q 764.1625 134.568 760.8375 134.568 
Q 757.525 134.568 753.6 134.568 
Q 749.675 134.568 745.2625 134.568 
Q 737.95 134.568 732.675 134.568 
Q 727.4125 134.568 724.0125 134.568 
Q 720.6125 134.568 718.9875 134.568 
Q 717.375 134.568 717.375 134.568 
Q 717.375 134.568 719.0875 134.568 
Q 720.8125 134.568 724.3 134.568 
Q 727.8 134.568 733.0875 134.568 
Q 738.3875 134.568 745.5375 134.568 
Q 750.725 134.568 754.7625 134.568 
Q 758.8125 134.568 761.8375 134.568 
Q 764.875 134.568 766.925 134.568 
Q 768.975 134.568 770.1875 134.568 
L 759.5625 134.568 
Q 758.85 134.568 757.675 134.568 
Q 756.5125 134.568 754.775 134.568 
Q 753.0375 134.568 750.75 134.568 
Q 748.4625 134.568 745.5375 134.568 
Q 741.2375 134.568 738.1125 134.568 
Q 734.9875 134.568 732.95 134.568 
Q 730.925 134.568 729.95 134.568 
Q 728.975 134.568 728.975 134.568 
Q 728.975 134.568 729.9625 134.568 
Q 730.9625 134.568 733.0125 134.568 
Q 735.0625 134.568 738.1875 134.568 
Q 741.3125 134.568 745.575 134.568 
z
" style="fill:#ffa500;"/>
   </g>
   <g id="text_59">
    <path d="M 750.96875 42.293 
L 750.96875 134.568 
L 739.44375 134.568 
L 739.44375 42.293 
L 721.66875 42.293 
L 721.66875 24.493 
L 768.78125 24.493 
L 768.78125 42.293 
z
" style="fill:#006400;"/>
   </g>
   <g id="text_60">
    <path d="M 799.975 134.568 
Q 802.475 134.568 804.775 134.568 
Q 807.0875 134.568 809.05 134.568 
Q 811.025 134.568 812.6 134.568 
Q 814.1875 134.568 815.2125 134.568 
L 815.2125 134.568 
L 801.775 134.568 
L 801.775 134.568 
L 825.75 134.568 
L 825.75 134.568 
Q 823.875 134.568 821.2125 134.568 
Q 818.5625 134.568 815.2375 134.568 
Q 811.925 134.568 808 134.568 
Q 804.075 134.568 799.6625 134.568 
Q 792.35 134.568 787.075 134.568 
Q 781.8125 134.568 778.4125 134.568 
Q 775.0125 134.568 773.3875 134.568 
Q 771.775 134.568 771.775 134.568 
Q 771.775 134.568 773.4875 134.568 
Q 775.2125 134.568 778.7 134.568 
Q 782.2 134.568 787.4875 134.568 
Q 792.7875 134.568 799.9375 134.568 
Q 805.125 134.568 809.1625 134.568 
Q 813.2125 134.568 816.2375 134.568 
Q 819.275 134.568 821.325 134.568 
Q 823.375 134.568 824.5875 134.568 
L 813.9625 134.568 
Q 813.25 134.568 812.075 134.568 
Q 810.9125 134.568 809.175 134.568 
Q 807.4375 134.568 805.15 134.568 
Q 802.8625 134.568 799.9375 134.568 
Q 795.6375 134.568 792.5125 134.568 
Q 789.3875 134.568 787.35 134.568 
Q 785.325 134.568 784.35 134.568 
Q 783.375 134.568 783.375 134.568 
Q 783.375 134.568 784.3625 134.568 
Q 785.3625 134.568 787.4125 134.568 
Q 789.4625 134.568 792.5875 134.568 
Q 795.7125 134.568 799.975 134.568 
z
" style="fill:#ffa500;"/>
   </g>
   <g id="text_61">
    <path d="M 805.36875 134.568 
L 805.36875 134.568 
L 793.84375 134.568 
L 793.84375 134.568 
L 776.06875 134.568 
L 776.06875 134.568 
L 823.18125 134.568 
L 823.18125 134.568 
z
" style="fill:#006400;"/>
   </g>
   <g id="text_62">
    <path d="M 801.7625 132.839858 
Q 805.0125 132.839858 807.375 132.64958 
Q 809.7375 132.459302 811.475 132.149122 
Q 813.2125 131.838943 814.3625 131.44796 
Q 815.5125 131.056978 816.2625 130.658176 
L 826.3 131.44796 
Q 825.0875 132.068319 823.1375 132.662612 
Q 821.1875 133.256906 818.25 133.713052 
Q 815.325 134.169198 811.275 134.450705 
Q 807.2375 134.732213 801.7625 134.732213 
Q 794.625 134.732213 789.3875 134.289099 
Q 784.15 133.843379 780.725 133.048382 
Q 777.3125 132.253384 775.65 131.163846 
Q 774 130.071702 774 128.776247 
Q 774 127.431268 775.65 126.34955 
Q 777.3125 125.265225 780.675 124.504113 
Q 784.0375 123.743 789.175 123.331165 
Q 794.3125 122.919331 801.2625 122.919331 
Q 806.65 122.919331 810.6875 123.156527 
Q 814.7375 123.391116 817.6875 123.821197 
Q 820.6375 124.248671 822.5625 124.829931 
Q 824.5 125.411192 825.6 126.112354 
L 815.4375 126.691008 
Q 814.8875 126.323484 813.75 125.987239 
Q 812.625 125.648388 810.8875 125.387733 
Q 809.15 125.127078 806.8 124.968078 
Q 804.4625 124.809079 801.5 124.809079 
Q 797.3125 124.809079 794.3 125.090586 
Q 791.3 125.372094 789.3625 125.893403 
Q 787.4375 126.414713 786.5125 127.144547 
Q 785.6 127.871775 785.6 128.776247 
Q 785.6 129.6729 786.5125 130.418373 
Q 787.4375 131.163846 789.3875 131.700796 
Q 791.3375 132.237745 794.4 132.540105 
Q 797.475 132.839858 801.7625 132.839858 
z
" style="fill:#0000ff;"/>
   </g>
   <g id="text_63">
    <path d="M 814.975 120.471781 
L 810.0875 103.855028 
L 789.1125 103.855028 
L 784.225 120.471781 
L 772.7 120.471781 
L 792.7875 55.437503 
L 806.375 55.437503 
L 826.375 120.471781 
z
M 802.075 74.919723 
Q 801.6125 73.294974 801.1625 71.655454 
Q 800.7125 70.015934 800.375 68.657053 
Q 800.05 67.298172 799.8375 66.426716 
Q 799.625 65.540489 799.575 65.451866 
Q 799.5375 65.5848 799.3375 66.471027 
Q 799.15 67.342484 798.8125 68.686594 
Q 798.4875 70.015934 798.0375 71.655454 
Q 797.5875 73.294974 797.125 74.919723 
L 791.6875 93.604338 
L 807.5125 93.604338 
z
" style="fill:#ff0000;"/>
   </g>
  </g>
 </g>
</svg>
